0
SECTION
2
HEADER
9
$INSUNITS
70
4
0
ENDSEC
0
SECTION
2
TABLES
0
TABLE
2
LTYPE
0
LTYPE
72
65
70
0
2
CONTINUOUS
3
______
73
0
40
0
0
LTYPE
72
65
70
0
2
DASHED
3
_ _ _ 
73
2
40
7.5
49
5
49
-2.5
0
LTYPE
72
65
70
0
2
DOTTED
3
. . . 
73
2
40
1.5
49
0.5
49
-1
0
ENDTAB
0
TABLE
2
LAYER
0
ENDTAB
0
ENDSEC
0
SECTION
2
ENTITIES
0
LINE
8
0
6
CONTINUOUS
10
69.7669036
20
-122.0658503
11
79.7446943
21
-65.478987
0
LINE
8
0
6
CONTINUOUS
10
82.057162
20
-63.8558894
11
117.5287887
21
-70.0280179
0
LINE
8
0
6
CONTINUOUS
10
117.5287887
20
-70.0280179
11
118.7860857
21
-68.7118751
0
LINE
8
0
6
CONTINUOUS
10
118.7860857
20
-68.7118751
11
132.9713149
21
-71.2131138
0
LINE
8
0
6
CONTINUOUS
10
134.9330641
20
-70.4239821
11
136.5949656
21
-68.1511329
0
LINE
8
0
6
CONTINUOUS
10
138.5567148
20
-67.3620012
11
155.9897507
21
-70.4359158
0
LINE
8
0
6
CONTINUOUS
10
157.5632929
20
-71.8484147
11
158.3476095
21
-74.5525982
0
LINE
8
0
6
CONTINUOUS
10
159.9211517
20
-75.9650971
11
173.8740985
21
-78.4253781
0
LINE
8
0
6
CONTINUOUS
10
175.4476408
20
-79.8378769
11
176.2319573
21
-82.5420606
0
LINE
8
0
6
CONTINUOUS
10
177.8054996
20
-83.9545594
11
191.0154244
21
-86.2838256
0
LINE
8
0
6
CONTINUOUS
10
192.6377435
20
-88.6007374
11
183.0262339
21
-143.1103179
0
LINE
8
0
6
CONTINUOUS
10
183.4742514
20
-144.7555895
11
195.8133644
21
-159.220558
0
LINE
8
0
6
CONTINUOUS
10
196.0893546
20
-161.3952755
11
188.6885063
21
-176.5692631
0
LINE
8
0
6
CONTINUOUS
10
186.0141759
20
-177.4901089
11
171.2358769
21
-170.2822508
0
LINE
8
0
6
CONTINUOUS
10
170.2762982
20
-169.2770801
11
168.8455112
21
-165.9614232
0
LINE
8
0
6
CONTINUOUS
10
167.5268282
20
-164.8219889
11
154.1437971
21
-161.2360165
0
LINE
8
0
6
CONTINUOUS
10
152.6924507
20
-158.953308
11
156.672238
21
-136.6190143
0
LINE
8
0
6
CONTINUOUS
10
155.05055
20
-134.298542
11
146.3185894
21
-132.7588618
0
LINE
8
0
6
CONTINUOUS
10
144.7450472
20
-131.3463629
11
143.9607306
21
-128.6421794
0
LINE
8
0
6
CONTINUOUS
10
142.3871884
20
-127.2296805
11
131.9143307
21
-125.3830331
0
LINE
8
0
6
CONTINUOUS
10
129.9525814
20
-126.1721647
11
128.2906799
21
-128.445014
0
LINE
8
0
6
CONTINUOUS
10
126.3289306
20
-129.2341456
11
112.3759839
21
-126.7738646
0
LINE
8
0
6
CONTINUOUS
10
110.4142347
20
-127.5629963
11
108.7523331
21
-129.8358455
0
LINE
8
0
6
CONTINUOUS
10
106.7905839
20
-130.6249772
11
71.3892227
21
-124.3827621
0
ARC
8
0
6
CONTINUOUS
10
81.7143098
20
-65.8262834
40
2
50
80.1292543
51
169.9999992
0
ARC
8
0
6
CONTINUOUS
10
133.3186113
20
-69.2434983
40
2
50
259.9999992
51
323.8258232
0
ARC
8
0
6
CONTINUOUS
10
138.2094184
20
-69.3316167
40
2
50
79.9999992
51
143.8258232
0
ARC
8
0
6
CONTINUOUS
10
155.6424543
20
-72.4055313
40
2
50
16.1741787
51
79.9999992
0
ARC
8
0
6
CONTINUOUS
10
160.2684481
20
-73.9954816
40
2
50
196.1741787
51
259.9999992
0
ARC
8
0
6
CONTINUOUS
10
173.5268021
20
-80.3949935
40
2
50
16.1741787
51
79.9999992
0
ARC
8
0
6
CONTINUOUS
10
178.152796
20
-81.984944
40
2
50
196.1741787
51
259.9999992
0
ARC
8
0
6
CONTINUOUS
10
190.668128
20
-88.253441
40
2
50
349.9999992
51
79.9999992
0
ARC
8
0
6
CONTINUOUS
10
184.9958494
20
-143.4576143
40
2
50
169.9999992
51
220.4653141
0
ARC
8
0
6
CONTINUOUS
10
194.2917664
20
-160.5185332
40
2
50
334.0000012
51
40.4653141
0
ARC
8
0
6
CONTINUOUS
10
186.8909182
20
-175.6925208
40
2
50
244.0000012
51
334.0000012
0
ARC
8
0
6
CONTINUOUS
10
172.1126192
20
-168.4846627
40
2
50
203.3413785
51
244.0000012
0
ARC
8
0
6
CONTINUOUS
10
167.0091902
20
-166.7538406
40
2
50
23.3413785
51
75.0000021
0
ARC
8
0
6
CONTINUOUS
10
154.6614351
20
-159.3041648
40
2
50
169.8964108
51
255.0000021
0
ARC
8
0
6
CONTINUOUS
10
154.7032536
20
-136.2681575
40
2
50
349.8964108
51
79.9999992
0
ARC
8
0
6
CONTINUOUS
10
146.6658858
20
-130.7892463
40
2
50
196.1741787
51
259.9999992
0
ARC
8
0
6
CONTINUOUS
10
142.039892
20
-129.199296
40
2
50
16.1741787
51
79.9999992
0
ARC
8
0
6
CONTINUOUS
10
131.5670343
20
-127.3526486
40
2
50
79.9999992
51
143.8258232
0
ARC
8
0
6
CONTINUOUS
10
126.676227
20
-127.2645301
40
2
50
259.9999992
51
323.8258232
0
ARC
8
0
6
CONTINUOUS
10
112.0286875
20
-128.7434801
40
2
50
79.9999992
51
143.8258232
0
ARC
8
0
6
CONTINUOUS
10
107.1378803
20
-128.6553617
40
2
50
259.9999992
51
323.8258232
0
ARC
8
0
6
CONTINUOUS
10
71.7365191
20
-122.4131467
40
2
50
169.9999992
51
259.9999992
0
CIRCLE
8
0
6
CONTINUOUS
10
172.5699953
20
-89.4148782
40
1.1
0
CIRCLE
8
0
6
CONTINUOUS
10
178.5925016
20
-148.5084393
40
1.1
0
CIRCLE
8
0
6
CONTINUOUS
10
131.673903
20
-102.5148645
40
1.1
0
CIRCLE
8
0
6
CONTINUOUS
10
94.4166083
20
-94.9782043
40
1.1
0
CIRCLE
8
0
6
CONTINUOUS
10
89.7854114
20
-121.243027
40
1.1
0
ENDSEC
0
EOF