0
SECTION
2
HEADER
9
$INSUNITS
70
4
0
ENDSEC
0
SECTION
2
TABLES
0
TABLE
2
LTYPE
0
LTYPE
72
65
70
64
2
CONTINUOUS
3
______
73
0
40
0
0
ENDTAB
0
TABLE
2
LAYER
0
ENDTAB
0
ENDSEC
0
SECTION
2
ENTITIES
0
LINE
8
0
10
69.7669036
20
-122.0658503
11
71.5288248
21
-112.0734984
0
LINE
8
0
10
75.6963811
20
-88.4381123
11
76.4886509
21
-83.9449269
0
LINE
8
0
10
77.0964195
20
-80.4980998
11
79.0933736
21
-69.1728106
0
LINE
8
0
10
79.7011422
20
-65.7259835
11
79.7446943
21
-65.478987
0
LINE
8
0
10
82.057162
20
-63.8558894
11
117.5287887
21
-70.0280179
0
LINE
8
0
10
117.5287887
20
-70.0280179
11
118.7860857
21
-68.7118751
0
LINE
8
0
10
118.7860857
20
-68.7118751
11
132.9713149
21
-71.2131138
0
LINE
8
0
10
134.9330641
20
-70.4239821
11
136.5949656
21
-68.1511329
0
LINE
8
0
10
138.5567148
20
-67.3620012
11
155.9897507
21
-70.4359158
0
LINE
8
0
10
157.5632929
20
-71.8484147
11
158.3476095
21
-74.5525982
0
LINE
8
0
10
159.9211517
20
-75.9650971
11
173.8740985
21
-78.4253781
0
LINE
8
0
10
175.4476408
20
-79.8378769
11
176.2319573
21
-82.5420606
0
LINE
8
0
10
177.8054996
20
-83.9545594
11
191.0154244
21
-86.2838256
0
LINE
8
0
10
192.6377435
20
-88.6007374
11
186.6995837
21
-122.2777156
0
LINE
8
0
10
184.7894538
20
-133.1106009
11
183.0262339
21
-143.1103179
0
LINE
8
0
10
183.4742514
20
-144.7555895
11
195.8133644
21
-159.220558
0
LINE
8
0
10
196.0893546
20
-161.3952755
11
188.6885063
21
-176.5692631
0
LINE
8
0
10
186.0141759
20
-177.4901089
11
171.2358769
21
-170.2822508
0
LINE
8
0
10
170.2762982
20
-169.2770801
11
168.8455112
21
-165.9614232
0
LINE
8
0
10
167.5268282
20
-164.8219889
11
154.1437971
21
-161.2360165
0
LINE
8
0
10
152.6924507
20
-158.953308
11
156.672238
21
-136.6190143
0
LINE
8
0
10
155.05055
20
-134.298542
11
146.3185894
21
-132.7588618
0
LINE
8
0
10
144.7450472
20
-131.3463629
11
143.9607306
21
-128.6421794
0
LINE
8
0
10
142.3871884
20
-127.2296805
11
131.9143307
21
-125.3830331
0
LINE
8
0
10
129.9525814
20
-126.1721647
11
128.2906799
21
-128.445014
0
LINE
8
0
10
126.3289306
20
-129.2341456
11
112.3759839
21
-126.7738646
0
LINE
8
0
10
110.4142347
20
-127.5629963
11
108.7523331
21
-129.8358455
0
LINE
8
0
10
106.7905839
20
-130.6249772
11
71.3892227
21
-124.3827621
0
ARC
8
0
10
81.7143098
20
-65.8262834
40
2
50
80.1292543
51
169.9999992
0
ARC
8
0
10
133.3186113
20
-69.2434983
40
2
50
259.9999992
51
323.8258232
0
ARC
8
0
10
138.2094184
20
-69.3316167
40
2
50
79.9999992
51
143.8258232
0
ARC
8
0
10
155.6424543
20
-72.4055313
40
2
50
16.1741787
51
79.9999992
0
ARC
8
0
10
160.2684481
20
-73.9954816
40
2
50
196.1741787
51
259.9999992
0
ARC
8
0
10
173.5268021
20
-80.3949935
40
2
50
16.1741787
51
79.9999992
0
ARC
8
0
10
178.152796
20
-81.984944
40
2
50
196.1741787
51
259.9999992
0
ARC
8
0
10
190.668128
20
-88.253441
40
2
50
349.9999992
51
79.9999992
0
ARC
8
0
10
184.9958494
20
-143.4576143
40
2
50
169.9999992
51
220.4653141
0
ARC
8
0
10
194.2917664
20
-160.5185332
40
2
50
334.0000012
51
40.4653141
0
ARC
8
0
10
186.8909182
20
-175.6925208
40
2
50
244.0000012
51
334.0000012
0
ARC
8
0
10
172.1126192
20
-168.4846627
40
2
50
203.3413785
51
244.0000012
0
ARC
8
0
10
167.0091902
20
-166.7538406
40
2
50
23.3413785
51
75.0000021
0
ARC
8
0
10
154.6614351
20
-159.3041648
40
2
50
169.8964108
51
255.0000021
0
ARC
8
0
10
154.7032536
20
-136.2681575
40
2
50
349.8964108
51
79.9999992
0
ARC
8
0
10
146.6658858
20
-130.7892463
40
2
50
196.1741787
51
259.9999992
0
ARC
8
0
10
142.039892
20
-129.199296
40
2
50
16.1741787
51
79.9999992
0
ARC
8
0
10
131.5670343
20
-127.3526486
40
2
50
79.9999992
51
143.8258232
0
ARC
8
0
10
126.676227
20
-127.2645301
40
2
50
259.9999992
51
323.8258232
0
ARC
8
0
10
112.0286875
20
-128.7434801
40
2
50
79.9999992
51
143.8258232
0
ARC
8
0
10
107.1378803
20
-128.6553617
40
2
50
259.9999992
51
323.8258232
0
ARC
8
0
10
71.7365191
20
-122.4131467
40
2
50
169.9999992
51
259.9999992
0
LINE
8
0
10
74.8548278
20
-122.5603719
11
84.7029053
21
-124.2968537
0
LINE
8
0
10
84.7029053
20
-124.2968537
11
85.5711462
21
-119.3728149
0
LINE
8
0
10
85.5711462
20
-119.3728149
11
81.1611922
21
-118.595221
0
LINE
8
0
10
80.1330227
20
-118.413927
11
75.7230687
21
-117.6363331
0
LINE
8
0
10
75.7230687
20
-117.6363331
11
74.8548278
21
-122.5603719
0
LINE
8
0
10
78.1628256
20
-103.7997842
11
88.0109031
21
-105.536266
0
LINE
8
0
10
88.0109031
20
-105.536266
11
88.879144
21
-100.6122272
0
LINE
8
0
10
88.879144
20
-100.6122272
11
84.46919
21
-99.8346333
0
LINE
8
0
10
83.4410205
20
-99.6533393
11
79.0310665
21
-98.8757454
0
LINE
8
0
10
79.0310665
20
-98.8757454
11
78.1628256
21
-103.7997842
0
LINE
8
0
10
93.5661751
20
-125.8596872
11
103.4142526
21
-127.596169
0
LINE
8
0
10
103.4142526
20
-127.596169
11
104.2824935
21
-122.6721302
0
LINE
8
0
10
104.2824935
20
-122.6721302
11
99.8725395
21
-121.8945363
0
LINE
8
0
10
98.84437
20
-121.7132423
11
94.434416
21
-120.9356484
0
LINE
8
0
10
94.434416
20
-120.9356484
11
93.5661751
21
-125.8596872
0
LINE
8
0
10
96.8741729
20
-107.0990995
11
106.7222504
21
-108.8355813
0
LINE
8
0
10
106.7222504
20
-108.8355813
11
107.5904913
21
-103.9115425
0
LINE
8
0
10
107.5904913
20
-103.9115425
11
103.1805373
21
-103.1339486
0
LINE
8
0
10
102.1523678
20
-102.9526546
11
97.7424138
21
-102.1750607
0
LINE
8
0
10
97.7424138
20
-102.1750607
11
96.8741729
21
-107.0990995
0
LINE
8
0
10
113.1045219
20
-124.4688557
11
122.9525994
21
-126.2053375
0
LINE
8
0
10
122.9525994
20
-126.2053375
11
123.8208403
21
-121.2812987
0
LINE
8
0
10
123.8208403
20
-121.2812987
11
119.4108863
21
-120.5037048
0
LINE
8
0
10
118.3827168
20
-120.3224108
11
113.9727628
21
-119.5448169
0
LINE
8
0
10
113.9727628
20
-119.5448169
11
113.1045219
21
-124.4688557
0
LINE
8
0
10
116.4125197
20
-105.708268
11
126.2605972
21
-107.4447498
0
LINE
8
0
10
126.2605972
20
-107.4447498
11
127.1288381
21
-102.520711
0
LINE
8
0
10
127.1288381
20
-102.520711
11
122.7188841
21
-101.7431171
0
LINE
8
0
10
121.6907146
20
-101.5618231
11
117.2807606
21
-100.7842292
0
LINE
8
0
10
117.2807606
20
-100.7842292
11
116.4125197
21
-105.708268
0
LINE
8
0
10
119.7205175
20
-86.9476803
11
129.568595
21
-88.6841621
0
LINE
8
0
10
129.568595
20
-88.6841621
11
130.4368359
21
-83.7601233
0
LINE
8
0
10
130.4368359
20
-83.7601233
11
126.0268819
21
-82.9825294
0
LINE
8
0
10
124.9987124
20
-82.8012354
11
120.5887584
21
-82.0236415
0
LINE
8
0
10
120.5887584
20
-82.0236415
11
119.7205175
21
-86.9476803
0
LINE
8
0
10
132.6428686
20
-123.0780241
11
142.4909461
21
-124.8145059
0
LINE
8
0
10
142.4909461
20
-124.8145059
11
143.359187
21
-119.8904671
0
LINE
8
0
10
143.359187
20
-119.8904671
11
138.949233
21
-119.1128732
0
LINE
8
0
10
137.9210635
20
-118.9315792
11
133.5111095
21
-118.1539853
0
LINE
8
0
10
133.5111095
20
-118.1539853
11
132.6428686
21
-123.0780241
0
LINE
8
0
10
135.9508664
20
-104.3174365
11
145.7989439
21
-106.0539183
0
LINE
8
0
10
145.7989439
20
-106.0539183
11
146.6671848
21
-101.1298795
0
LINE
8
0
10
146.6671848
20
-101.1298795
11
142.2572308
21
-100.3522856
0
LINE
8
0
10
141.2290613
20
-100.1709916
11
136.8191073
21
-99.3933977
0
LINE
8
0
10
136.8191073
20
-99.3933977
11
135.9508664
21
-104.3174365
0
LINE
8
0
10
139.2588642
20
-85.5568488
11
149.1069417
21
-87.2933306
0
LINE
8
0
10
149.1069417
20
-87.2933306
11
149.9751826
21
-82.3692918
0
LINE
8
0
10
149.9751826
20
-82.3692918
11
145.5652286
21
-81.5916979
0
LINE
8
0
10
144.5370591
20
-81.4104039
11
140.1271051
21
-80.63281
0
LINE
8
0
10
140.1271051
20
-80.63281
11
139.2588642
21
-85.5568488
0
LINE
8
0
10
150.5272165
20
-131.0674864
11
160.375294
21
-132.8039682
0
LINE
8
0
10
160.375294
20
-132.8039682
11
161.2435349
21
-127.8799294
0
LINE
8
0
10
161.2435349
20
-127.8799294
11
156.8335809
21
-127.1023355
0
LINE
8
0
10
155.8054114
20
-126.9210415
11
151.3954574
21
-126.1434476
0
LINE
8
0
10
151.3954574
20
-126.1434476
11
150.5272165
21
-131.0674864
0
LINE
8
0
10
153.8352143
20
-112.3068988
11
163.6832918
21
-114.0433806
0
LINE
8
0
10
163.6832918
20
-114.0433806
11
164.5515327
21
-109.1193418
0
LINE
8
0
10
164.5515327
20
-109.1193418
11
160.1415787
21
-108.3417479
0
LINE
8
0
10
159.1134092
20
-108.1604539
11
154.7034552
21
-107.38286
0
LINE
8
0
10
154.7034552
20
-107.38286
11
153.8352143
21
-112.3068988
0
LINE
8
0
10
157.1432121
20
-93.5463111
11
166.9912896
21
-95.2827929
0
LINE
8
0
10
166.9912896
20
-95.2827929
11
167.8595305
21
-90.3587541
0
LINE
8
0
10
167.8595305
20
-90.3587541
11
163.4495765
21
-89.5811602
0
LINE
8
0
10
162.421407
20
-89.3998662
11
158.011453
21
-88.6222723
0
LINE
8
0
10
158.011453
20
-88.6222723
11
157.1432121
21
-93.5463111
0
LINE
8
0
10
168.4115644
20
-139.0569487
11
178.2596419
21
-140.7934305
0
LINE
8
0
10
178.2596419
20
-140.7934305
11
179.1278828
21
-135.8693917
0
LINE
8
0
10
179.1278828
20
-135.8693917
11
174.7179288
21
-135.0917978
0
LINE
8
0
10
173.6897593
20
-134.9105038
11
169.2798053
21
-134.1329099
0
LINE
8
0
10
169.2798053
20
-134.1329099
11
168.4115644
21
-139.0569487
0
LINE
8
0
10
171.7195622
20
-120.2963611
11
179.1056203
21
-121.5987224
0
LINE
8
0
10
181.680511
20
-121.3927177
11
182.4358806
21
-117.1088041
0
LINE
8
0
10
182.4358806
20
-117.1088041
11
178.0259266
21
-116.3312102
0
LINE
8
0
10
176.9977571
20
-116.1499162
11
172.5878031
21
-115.3723223
0
LINE
8
0
10
172.5878031
20
-115.3723223
11
171.7195622
21
-120.2963611
0
LINE
8
0
10
175.0275599
20
-101.5357734
11
184.8756374
21
-103.2722552
0
LINE
8
0
10
184.8756374
20
-103.2722552
11
185.7438783
21
-98.3482164
0
LINE
8
0
10
185.7438783
20
-98.3482164
11
181.3339243
21
-97.5706225
0
LINE
8
0
10
180.3057548
20
-97.3893285
11
175.8958008
21
-96.6117346
0
LINE
8
0
10
175.8958008
20
-96.6117346
11
175.0275599
21
-101.5357734
0
LINE
8
0
10
175.2936761
20
-169.5950212
11
184.2816166
21
-173.9787326
0
LINE
8
0
10
184.2816166
20
-173.9787326
11
186.4734723
21
-169.4847624
0
LINE
8
0
10
186.4734723
20
-169.4847624
11
182.4486864
21
-167.5217432
0
LINE
8
0
10
181.5103179
20
-167.0640703
11
177.4855318
21
-165.101051
0
LINE
8
0
10
177.4855318
20
-165.101051
11
175.2936761
21
-169.5950212
0
LINE
8
0
10
157.9134666
20
-159.765057
11
167.5727248
21
-162.3532475
0
LINE
8
0
10
167.5727248
20
-162.3532475
11
168.86682
21
-157.5236184
0
LINE
8
0
10
168.86682
20
-157.5236184
11
164.5414189
21
-156.3646306
0
LINE
8
0
10
163.5329628
20
-156.0944156
11
159.2075618
21
-154.9354279
0
LINE
8
0
10
159.2075618
20
-154.9354279
11
157.9134666
21
-159.765057
0
ARC
8
0
10
81.1159575
20
-115.8455931
40
2.75
50
270.9424998
51
609.0575013
0
ARC
8
0
10
84.4239553
20
-97.0850054
40
2.75
50
270.9424998
51
609.0575013
0
ARC
8
0
10
99.8273048
20
-119.1449084
40
2.75
50
270.9424998
51
609.0575013
0
ARC
8
0
10
103.1353026
20
-100.3843207
40
2.75
50
270.9424998
51
609.0575013
0
ARC
8
0
10
119.3656516
20
-117.7540769
40
2.75
50
270.9424998
51
609.0575013
0
ARC
8
0
10
122.6736494
20
-98.9934892
40
2.75
50
270.9424998
51
609.0575013
0
ARC
8
0
10
125.9816472
20
-80.2329015
40
2.75
50
270.9424998
51
609.0575013
0
ARC
8
0
10
138.9039983
20
-116.3632453
40
2.75
50
270.9424998
51
609.0575013
0
ARC
8
0
10
142.2119961
20
-97.6026577
40
2.75
50
270.9424998
51
609.0575013
0
ARC
8
0
10
145.5199939
20
-78.84207
40
2.75
50
270.9424998
51
609.0575013
0
ARC
8
0
10
156.7883462
20
-124.3527076
40
2.75
50
270.9424998
51
609.0575013
0
ARC
8
0
10
160.096344
20
-105.59212
40
2.75
50
270.9424998
51
609.0575013
0
ARC
8
0
10
163.4043418
20
-86.8315323
40
2.75
50
270.9424998
51
609.0575013
0
ARC
8
0
10
174.6726941
20
-132.3421699
40
2.75
50
270.9424998
51
371.3236869
0
ARC
8
0
10
174.6726941
20
-132.3421699
40
2.75
50
374.6199777
51
609.0575013
0
ARC
8
0
10
177.9806919
20
-113.5815823
40
2.75
50
270.9424998
51
609.0575013
0
ARC
8
0
10
181.2886896
20
-94.8209946
40
2.75
50
270.9424998
51
609.0575013
0
ARC
8
0
10
183.1631042
20
-164.8661628
40
2.75
50
254.9424996
51
593.0575025
0
ARC
8
0
10
164.7360023
20
-153.6215234
40
2.75
50
265.9424975
51
604.057501
0
LINE
8
0
10
76.1336353
20
-112.4285087
11
79.0880586
21
-112.9494532
0
LINE
8
0
10
79.0880586
20
-112.9494532
11
79.9562995
21
-108.0254145
0
LINE
8
0
10
79.9562995
20
-108.0254145
11
77.0018762
21
-107.50447
0
LINE
8
0
10
77.0018762
20
-107.50447
11
76.1336353
21
-112.4285087
0
LINE
8
0
10
79.4416331
20
-93.667921
11
82.3960564
21
-94.1888655
0
LINE
8
0
10
82.3960564
20
-94.1888655
11
83.2642973
21
-89.2648268
0
LINE
8
0
10
83.2642973
20
-89.2648268
11
80.309874
21
-88.7438823
0
LINE
8
0
10
80.309874
20
-88.7438823
11
79.4416331
21
-93.667921
0
LINE
8
0
10
94.8449826
20
-115.727824
11
97.7994059
21
-116.2487685
0
LINE
8
0
10
97.7994059
20
-116.2487685
11
98.6676468
21
-111.3247298
0
LINE
8
0
10
98.6676468
20
-111.3247298
11
95.7132235
21
-110.8037853
0
LINE
8
0
10
95.7132235
20
-110.8037853
11
94.8449826
21
-115.727824
0
LINE
8
0
10
98.1529804
20
-96.9672363
11
101.1074037
21
-97.4881808
0
LINE
8
0
10
101.1074037
20
-97.4881808
11
101.9756446
21
-92.5641421
0
LINE
8
0
10
101.9756446
20
-92.5641421
11
99.0212213
21
-92.0431976
0
LINE
8
0
10
99.0212213
20
-92.0431976
11
98.1529804
21
-96.9672363
0
LINE
8
0
10
114.3833294
20
-114.3369925
11
117.3377527
21
-114.857937
0
LINE
8
0
10
117.3377527
20
-114.857937
11
118.2059936
21
-109.9338983
0
LINE
8
0
10
118.2059936
20
-109.9338983
11
115.2515703
21
-109.4129538
0
LINE
8
0
10
115.2515703
20
-109.4129538
11
114.3833294
21
-114.3369925
0
LINE
8
0
10
117.6913272
20
-95.5764048
11
120.6457505
21
-96.0973493
0
LINE
8
0
10
120.6457505
20
-96.0973493
11
121.5139914
21
-91.1733106
0
LINE
8
0
10
121.5139914
20
-91.1733106
11
118.5595681
21
-90.6523661
0
LINE
8
0
10
118.5595681
20
-90.6523661
11
117.6913272
21
-95.5764048
0
LINE
8
0
10
120.999325
20
-76.8158171
11
123.9537483
21
-77.3367616
0
LINE
8
0
10
123.9537483
20
-77.3367616
11
124.8219892
21
-72.4127229
0
LINE
8
0
10
124.8219892
20
-72.4127229
11
121.8675659
21
-71.8917784
0
LINE
8
0
10
121.8675659
20
-71.8917784
11
120.999325
21
-76.8158171
0
LINE
8
0
10
133.9216761
20
-112.9461609
11
136.8760994
21
-113.4671054
0
LINE
8
0
10
136.8760994
20
-113.4671054
11
137.7443403
21
-108.5430667
0
LINE
8
0
10
137.7443403
20
-108.5430667
11
134.789917
21
-108.0221222
0
LINE
8
0
10
134.789917
20
-108.0221222
11
133.9216761
21
-112.9461609
0
LINE
8
0
10
137.2296739
20
-94.1855733
11
140.1840972
21
-94.7065178
0
LINE
8
0
10
140.1840972
20
-94.7065178
11
141.0523381
21
-89.7824791
0
LINE
8
0
10
141.0523381
20
-89.7824791
11
138.0979148
21
-89.2615346
0
LINE
8
0
10
138.0979148
20
-89.2615346
11
137.2296739
21
-94.1855733
0
LINE
8
0
10
140.5376717
20
-75.4249856
11
143.492095
21
-75.9459301
0
LINE
8
0
10
143.492095
20
-75.9459301
11
144.3603359
21
-71.0218914
0
LINE
8
0
10
144.3603359
20
-71.0218914
11
141.4059126
21
-70.5009469
0
LINE
8
0
10
141.4059126
20
-70.5009469
11
140.5376717
21
-75.4249856
0
LINE
8
0
10
151.806024
20
-120.9356232
11
154.7604473
21
-121.4565677
0
LINE
8
0
10
154.7604473
20
-121.4565677
11
155.6286882
21
-116.532529
0
LINE
8
0
10
155.6286882
20
-116.532529
11
152.6742649
21
-116.0115845
0
LINE
8
0
10
152.6742649
20
-116.0115845
11
151.806024
21
-120.9356232
0
LINE
8
0
10
155.1140218
20
-102.1750356
11
158.0684451
21
-102.6959801
0
LINE
8
0
10
158.0684451
20
-102.6959801
11
158.936686
21
-97.7719414
0
LINE
8
0
10
158.936686
20
-97.7719414
11
155.9822627
21
-97.2509969
0
LINE
8
0
10
155.9822627
20
-97.2509969
11
155.1140218
21
-102.1750356
0
LINE
8
0
10
158.4220196
20
-83.4144479
11
161.3764429
21
-83.9353924
0
LINE
8
0
10
161.3764429
20
-83.9353924
11
162.2446838
21
-79.0113537
0
LINE
8
0
10
162.2446838
20
-79.0113537
11
159.2902605
21
-78.4904092
0
LINE
8
0
10
159.2902605
20
-78.4904092
11
158.4220196
21
-83.4144479
0
LINE
8
0
10
169.6903719
20
-128.9250855
11
172.6447952
21
-129.44603
0
LINE
8
0
10
172.6447952
20
-129.44603
11
173.5130361
21
-124.5219913
0
LINE
8
0
10
173.5130361
20
-124.5219913
11
170.5586128
21
-124.0010468
0
LINE
8
0
10
170.5586128
20
-124.0010468
11
169.6903719
21
-128.9250855
0
LINE
8
0
10
172.9983697
20
-110.1644979
11
175.952793
21
-110.6854424
0
LINE
8
0
10
175.952793
20
-110.6854424
11
176.8210339
21
-105.7614037
0
LINE
8
0
10
176.8210339
20
-105.7614037
11
173.8666106
21
-105.2404592
0
LINE
8
0
10
173.8666106
20
-105.2404592
11
172.9983697
21
-110.1644979
0
LINE
8
0
10
176.3063674
20
-91.4039102
11
179.2607907
21
-91.9248547
0
LINE
8
0
10
179.2607907
20
-91.9248547
11
180.1290316
21
-87.000816
0
LINE
8
0
10
180.1290316
20
-87.000816
11
177.1746083
21
-86.4798715
0
LINE
8
0
10
177.1746083
20
-86.4798715
11
176.3063674
21
-91.4039102
0
LINE
8
0
10
179.3156648
20
-160.2081364
11
182.0120469
21
-161.5232498
0
LINE
8
0
10
182.0120469
20
-161.5232498
11
184.2039026
21
-157.0292796
0
LINE
8
0
10
184.2039026
20
-157.0292796
11
181.5075205
21
-155.7141662
0
LINE
8
0
10
181.5075205
20
-155.7141662
11
179.3156648
21
-160.2081364
0
LINE
8
0
10
160.0704578
20
-149.7832041
11
162.9682353
21
-150.5596612
0
LINE
8
0
10
162.9682353
20
-150.5596612
11
164.2623306
21
-145.7300321
0
LINE
8
0
10
164.2623306
20
-145.7300321
11
161.3645531
21
-144.953575
0
LINE
8
0
10
161.3645531
20
-144.953575
11
160.0704578
21
-149.7832041
0
CIRCLE
8
0
10
172.5699953
20
-89.4148782
40
2.15
0
CIRCLE
8
0
10
178.5925016
20
-148.5084393
40
2.15
0
CIRCLE
8
0
10
131.673903
20
-102.5148645
40
2.15
0
CIRCLE
8
0
10
94.4166083
20
-94.9782043
40
2.15
0
CIRCLE
8
0
10
89.7854114
20
-121.243027
40
2.15
0
LINE
8
0
10
79.0933736
20
-69.1728106
11
112.1794673
21
-75.0067817
0
LINE
8
0
10
112.1794673
20
-75.0067817
11
112.7872359
21
-71.5599546
0
LINE
8
0
10
112.7872359
20
-71.5599546
11
79.7011422
21
-65.7259835
0
LINE
8
0
10
76.4886509
20
-83.9449269
11
109.5747446
21
-89.778898
0
LINE
8
0
10
109.5747446
20
-89.778898
11
110.1825132
21
-86.3320709
0
LINE
8
0
10
110.1825132
20
-86.3320709
11
77.0964195
21
-80.4980998
0
LINE
8
0
10
75.8092917
20
-112.8282602
11
79.976848
21
-89.1928741
0
LINE
8
0
10
79.976848
20
-89.1928741
11
75.6963811
21
-88.4381123
0
LINE
8
0
10
71.5288248
20
-112.0734984
11
75.8092917
21
-112.8282602
0
LINE
8
0
10
177.3691614
20
-131.8022032
11
184.7894538
21
-133.1106009
0
LINE
8
0
10
186.6995837
20
-122.2777156
11
181.680511
21
-121.3927177
0
LINE
8
0
10
179.1056203
20
-121.5987224
11
177.3336525
21
-131.6480513
0
ENDSEC
0
EOF