0
SECTION
2
HEADER
9
$INSUNITS
70
4
0
ENDSEC
0
SECTION
2
TABLES
0
TABLE
2
LTYPE
0
LTYPE
72
65
70
64
2
CONTINUOUS
3
______
73
0
40
0
0
ENDTAB
0
TABLE
2
LAYER
0
ENDTAB
0
ENDSEC
0
SECTION
2
ENTITIES
0
LINE
8
0
10
69.7669036
20
-122.0658503
11
75.709206
21
-88.3653784
0
LINE
8
0
10
118.1286495
20
-69.4000815
11
118.7860857
21
-68.7118751
0
LINE
8
0
10
118.7860857
20
-68.7118751
11
132.9713149
21
-71.2131138
0
LINE
8
0
10
134.9330641
20
-70.4239821
11
136.5949656
21
-68.1511329
0
LINE
8
0
10
138.5567148
20
-67.3620012
11
155.9897507
21
-70.4359158
0
LINE
8
0
10
157.5632929
20
-71.8484147
11
158.3476095
21
-74.5525982
0
LINE
8
0
10
159.9211517
20
-75.9650971
11
173.8740985
21
-78.4253781
0
LINE
8
0
10
175.4476408
20
-79.8378769
11
176.2319573
21
-82.5420606
0
LINE
8
0
10
177.8054996
20
-83.9545594
11
191.0154244
21
-86.2838256
0
LINE
8
0
10
192.6377435
20
-88.6007374
11
183.0262339
21
-143.1103179
0
LINE
8
0
10
183.4742514
20
-144.7555895
11
195.8133644
21
-159.220558
0
LINE
8
0
10
196.0893546
20
-161.3952755
11
188.6885063
21
-176.5692631
0
LINE
8
0
10
186.0141759
20
-177.4901089
11
171.2358769
21
-170.2822508
0
LINE
8
0
10
170.2762982
20
-169.2770801
11
168.8455112
21
-165.9614232
0
LINE
8
0
10
167.5268282
20
-164.8219889
11
154.1437971
21
-161.2360165
0
LINE
8
0
10
152.6924507
20
-158.953308
11
156.672238
21
-136.6190143
0
LINE
8
0
10
155.05055
20
-134.298542
11
146.3185894
21
-132.7588618
0
LINE
8
0
10
144.7450472
20
-131.3463629
11
143.9607306
21
-128.6421794
0
LINE
8
0
10
142.3871884
20
-127.2296805
11
131.9143307
21
-125.3830331
0
LINE
8
0
10
129.9525814
20
-126.1721647
11
128.2906799
21
-128.445014
0
LINE
8
0
10
126.3289306
20
-129.2341456
11
112.3759839
21
-126.7738646
0
LINE
8
0
10
110.4142347
20
-127.5629963
11
108.7523331
21
-129.8358455
0
LINE
8
0
10
106.7905839
20
-130.6249772
11
71.3892227
21
-124.3827621
0
ARC
8
0
10
133.3186113
20
-69.2434983
40
2
50
259.9999992
51
323.8258232
0
ARC
8
0
10
138.2094184
20
-69.3316167
40
2
50
79.9999992
51
143.8258232
0
ARC
8
0
10
155.6424543
20
-72.4055313
40
2
50
16.1741787
51
79.9999992
0
ARC
8
0
10
160.2684481
20
-73.9954816
40
2
50
196.1741787
51
259.9999992
0
ARC
8
0
10
173.5268021
20
-80.3949935
40
2
50
16.1741787
51
79.9999992
0
ARC
8
0
10
178.152796
20
-81.984944
40
2
50
196.1741787
51
259.9999992
0
ARC
8
0
10
190.668128
20
-88.253441
40
2
50
349.9999992
51
79.9999992
0
ARC
8
0
10
184.9958494
20
-143.4576143
40
2
50
169.9999992
51
220.4653141
0
ARC
8
0
10
194.2917664
20
-160.5185332
40
2
50
334.0000012
51
40.4653141
0
ARC
8
0
10
186.8909182
20
-175.6925208
40
2
50
244.0000012
51
334.0000012
0
ARC
8
0
10
172.1126192
20
-168.4846627
40
2
50
203.3413785
51
244.0000012
0
ARC
8
0
10
167.0091902
20
-166.7538406
40
2
50
23.3413785
51
75.0000021
0
ARC
8
0
10
154.6614351
20
-159.3041648
40
2
50
169.8964108
51
255.0000021
0
ARC
8
0
10
154.7032536
20
-136.2681575
40
2
50
349.8964108
51
79.9999992
0
ARC
8
0
10
146.6658858
20
-130.7892463
40
2
50
196.1741787
51
259.9999992
0
ARC
8
0
10
142.039892
20
-129.199296
40
2
50
16.1741787
51
79.9999992
0
ARC
8
0
10
131.5670343
20
-127.3526486
40
2
50
79.9999992
51
143.8258232
0
ARC
8
0
10
126.676227
20
-127.2645301
40
2
50
259.9999992
51
323.8258232
0
ARC
8
0
10
112.0286875
20
-128.7434801
40
2
50
79.9999992
51
143.8258232
0
ARC
8
0
10
107.1378803
20
-128.6553617
40
2
50
259.9999992
51
323.8258232
0
ARC
8
0
10
71.7365191
20
-122.4131467
40
2
50
169.9999992
51
259.9999992
0
LINE
8
0
10
73.006766
20
-121.5237101
11
86.7940745
21
-123.9547846
0
LINE
8
0
10
86.7940745
20
-123.9547846
11
89.225149
21
-110.1674761
0
LINE
8
0
10
89.225149
20
-110.1674761
11
75.4378405
21
-107.7364016
0
LINE
8
0
10
75.4378405
20
-107.7364016
11
73.006766
21
-121.5237101
0
LINE
8
0
10
76.3147638
20
-102.7631224
11
90.1020723
21
-105.1941969
0
LINE
8
0
10
90.1020723
20
-105.1941969
11
92.5331468
21
-91.4068884
0
LINE
8
0
10
92.5331468
20
-91.4068884
11
78.7458383
21
-88.9758139
0
LINE
8
0
10
78.7458383
20
-88.9758139
11
76.3147638
21
-102.7631224
0
LINE
8
0
10
91.7181133
20
-124.8230254
11
105.5054218
21
-127.2540999
0
LINE
8
0
10
105.5054218
20
-127.2540999
11
107.9364963
21
-113.4667914
0
LINE
8
0
10
107.9364963
20
-113.4667914
11
94.1491878
21
-111.0357169
0
LINE
8
0
10
94.1491878
20
-111.0357169
11
91.7181133
21
-124.8230254
0
LINE
8
0
10
95.0261111
20
-106.0624377
11
108.8134196
21
-108.4935122
0
LINE
8
0
10
108.8134196
20
-108.4935122
11
111.2444941
21
-94.7062037
0
LINE
8
0
10
111.2444941
20
-94.7062037
11
97.4571856
21
-92.2751292
0
LINE
8
0
10
97.4571856
20
-92.2751292
11
95.0261111
21
-106.0624377
0
LINE
8
0
10
111.2564601
20
-123.4321939
11
125.0437686
21
-125.8632684
0
LINE
8
0
10
125.0437686
20
-125.8632684
11
127.4748431
21
-112.0759599
0
LINE
8
0
10
127.4748431
20
-112.0759599
11
113.6875346
21
-109.6448854
0
LINE
8
0
10
113.6875346
20
-109.6448854
11
111.2564601
21
-123.4321939
0
LINE
8
0
10
114.5644579
20
-104.6716062
11
128.3517664
21
-107.1026807
0
LINE
8
0
10
128.3517664
20
-107.1026807
11
130.7828409
21
-93.3153722
0
LINE
8
0
10
130.7828409
20
-93.3153722
11
116.9955324
21
-90.8842977
0
LINE
8
0
10
116.9955324
20
-90.8842977
11
114.5644579
21
-104.6716062
0
LINE
8
0
10
117.8724557
20
-85.9110185
11
131.6597642
21
-88.342093
0
LINE
8
0
10
131.6597642
20
-88.342093
11
134.0908387
21
-74.5547845
0
LINE
8
0
10
134.0908387
20
-74.5547845
11
120.3035302
21
-72.12371
0
LINE
8
0
10
120.3035302
20
-72.12371
11
117.8724557
21
-85.9110185
0
LINE
8
0
10
130.7948068
20
-122.0413623
11
144.5821153
21
-124.4724368
0
LINE
8
0
10
144.5821153
20
-124.4724368
11
147.0131898
21
-110.6851283
0
LINE
8
0
10
147.0131898
20
-110.6851283
11
133.2258813
21
-108.2540538
0
LINE
8
0
10
133.2258813
20
-108.2540538
11
130.7948068
21
-122.0413623
0
LINE
8
0
10
134.1028046
20
-103.2807747
11
147.8901131
21
-105.7118492
0
LINE
8
0
10
147.8901131
20
-105.7118492
11
150.3211876
21
-91.9245407
0
LINE
8
0
10
150.3211876
20
-91.9245407
11
136.5338791
21
-89.4934662
0
LINE
8
0
10
136.5338791
20
-89.4934662
11
134.1028046
21
-103.2807747
0
LINE
8
0
10
137.4108024
20
-84.520187
11
151.1981109
21
-86.9512615
0
LINE
8
0
10
151.1981109
20
-86.9512615
11
153.6291854
21
-73.163953
0
LINE
8
0
10
153.6291854
20
-73.163953
11
139.8418769
21
-70.7328785
0
LINE
8
0
10
139.8418769
20
-70.7328785
11
137.4108024
21
-84.520187
0
LINE
8
0
10
148.6791547
20
-130.0308246
11
162.4664632
21
-132.4618991
0
LINE
8
0
10
162.4664632
20
-132.4618991
11
164.8975377
21
-118.6745906
0
LINE
8
0
10
164.8975377
20
-118.6745906
11
151.1102292
21
-116.2435161
0
LINE
8
0
10
151.1102292
20
-116.2435161
11
148.6791547
21
-130.0308246
0
LINE
8
0
10
151.9871525
20
-111.270237
11
165.774461
21
-113.7013115
0
LINE
8
0
10
165.774461
20
-113.7013115
11
168.2055355
21
-99.914003
0
LINE
8
0
10
168.2055355
20
-99.914003
11
154.418227
21
-97.4829285
0
LINE
8
0
10
154.418227
20
-97.4829285
11
151.9871525
21
-111.270237
0
LINE
8
0
10
155.2951503
20
-92.5096493
11
169.0824588
21
-94.9407238
0
LINE
8
0
10
169.0824588
20
-94.9407238
11
171.5135333
21
-81.1534153
0
LINE
8
0
10
171.5135333
20
-81.1534153
11
157.7262248
21
-78.7223408
0
LINE
8
0
10
157.7262248
20
-78.7223408
11
155.2951503
21
-92.5096493
0
LINE
8
0
10
166.5635026
20
-138.0202869
11
180.3508111
21
-140.4513614
0
LINE
8
0
10
180.3508111
20
-140.4513614
11
182.7818856
21
-126.6640529
0
LINE
8
0
10
182.7818856
20
-126.6640529
11
168.9945771
21
-124.2329784
0
LINE
8
0
10
168.9945771
20
-124.2329784
11
166.5635026
21
-138.0202869
0
LINE
8
0
10
169.8715004
20
-119.2596993
11
183.6588089
21
-121.6907738
0
LINE
8
0
10
183.6588089
20
-121.6907738
11
186.0898834
21
-107.9034653
0
LINE
8
0
10
186.0898834
20
-107.9034653
11
172.3025749
21
-105.4723908
0
LINE
8
0
10
172.3025749
20
-105.4723908
11
169.8715004
21
-119.2596993
0
LINE
8
0
10
173.1794981
20
-100.4991116
11
186.9668066
21
-102.9301861
0
LINE
8
0
10
186.9668066
20
-102.9301861
11
189.3978811
21
-89.1428776
0
LINE
8
0
10
189.3978811
20
-89.1428776
11
175.6105726
21
-86.7118031
0
LINE
8
0
10
175.6105726
20
-86.7118031
11
173.1794981
21
-100.4991116
0
LINE
8
0
10
173.8029478
20
-168.0891231
11
186.3860645
21
-174.2263192
0
LINE
8
0
10
186.3860645
20
-174.2263192
11
192.5232606
21
-161.6432025
0
LINE
8
0
10
192.5232606
20
-161.6432025
11
179.9401439
21
-155.5060064
0
LINE
8
0
10
179.9401439
20
-155.5060064
11
173.8029478
21
-168.0891231
0
LINE
8
0
10
156.1627882
20
-158.5712709
11
169.6857498
21
-162.1947375
0
LINE
8
0
10
169.6857498
20
-162.1947375
11
173.3092164
21
-148.6717759
0
LINE
8
0
10
173.3092164
20
-148.6717759
11
159.7862548
21
-145.0483093
0
LINE
8
0
10
159.7862548
20
-145.0483093
11
156.1627882
21
-158.5712709
0
LINE
8
0
10
118.1286495
20
-69.4000815
11
114.1814415
21
-89.364104
0
LINE
8
0
10
110.6952682
20
-91.7326426
11
79.206775
21
-85.9359005
0
ARC
8
0
10
111.2384139
20
-88.7822201
40
3
50
259.5691568
51
348.8159482
0
ARC
8
0
10
78.6636293
20
-88.8863229
40
3
50
79.5691568
51
169.9999992
0
CIRCLE
8
0
10
172.5699953
20
-89.4148782
40
2.15
0
CIRCLE
8
0
10
178.5925016
20
-148.5084393
40
2.15
0
CIRCLE
8
0
10
131.673903
20
-102.5148645
40
2.15
0
CIRCLE
8
0
10
94.4166083
20
-94.9782043
40
2.15
0
CIRCLE
8
0
10
89.7854114
20
-121.243027
40
2.15
0
ENDSEC
0
EOF